<svg xmlns="http://www.w3.org/2000/svg" xmlns:xlink="http://www.w3.org/1999/xlink">

<symbol id="email" fill-rule="evenodd" clip-rule="evenodd" stroke-linejoin="round" stroke-miterlimit="1.414" viewBox="0 0 44 32">
  <path d="M23.417,20.408L41.739,0H2.229l18.322,20.408C21.343,21.199,22.626,21.199,23.417,20.408z M0.334,0.896
    C0.124,1.212,0,1.592,0,2v28c0,0.403,0.121,0.776,0.326,1.09l13.851-14.839L0.334,0.896z M43.654,0.877L29.793,16.251
    l13.87,14.858C43.875,30.792,44,30.411,44,30V2C44,1.584,43.872,1.197,43.654,0.877z M24.773,21.818
    c-1.54,1.54-4.037,1.54-5.578,0l-3.702-4.107L2.199,32h39.57L28.477,17.711L24.773,21.818z"/>
  </symbol>

</svg>
